<svg width="400" height="400" viewBox="0 0 400 400" fill="none" xmlns="http://www.w3.org/2000/svg">
<path d="M196.8 243.205C243.682 243.205 281.688 205.199 281.688 158.316C281.688 111.434 243.682 73.4277 196.8 73.4277C149.917 73.4277 111.911 111.434 111.911 158.316C111.911 205.199 149.917 243.205 196.8 243.205Z" fill="#1A6DAF"/>
<path d="M164.127 244.884L196.8 215.723" stroke="#1A6DAF" stroke-width="3.05354" stroke-miterlimit="10" stroke-linecap="round" stroke-linejoin="round"/>
<path d="M187.945 96.3292L222.144 69" stroke="#1A6DAF" stroke-width="3.05354" stroke-miterlimit="10" stroke-linecap="round" stroke-linejoin="round"/>
<path d="M252.832 176.637L287.185 149.308" stroke="#1A6DAF" stroke-width="3.05354" stroke-miterlimit="10" stroke-linecap="round" stroke-linejoin="round"/>
<path d="M253.443 150.224L283.826 123.2" stroke="#25ABBE" stroke-width="3.05354" stroke-miterlimit="10" stroke-linecap="round" stroke-linejoin="round"/>
<path d="M126.721 237.403L157.104 210.379" stroke="#1A6DAF" stroke-width="3.05354" stroke-miterlimit="10" stroke-linecap="round" stroke-linejoin="round"/>
<path d="M110.995 187.935L142.447 161.98" stroke="#25ABBE" stroke-width="3.05354" stroke-miterlimit="10" stroke-linecap="round" stroke-linejoin="round"/>
<path d="M225.045 102.131L256.955 76.9392" stroke="#25ABBE" stroke-width="3.05354" stroke-miterlimit="10" stroke-linecap="round" stroke-linejoin="round"/>
<path d="M116.339 119.231L147.485 92.9703" stroke="#25ABBE" stroke-width="3.05354" stroke-miterlimit="10" stroke-linecap="round" stroke-linejoin="round"/>
<path d="M114.66 206.715L177.563 151.598" stroke="#25ABBE" stroke-width="3.05354" stroke-miterlimit="10" stroke-linecap="round" stroke-linejoin="round"/>
<path d="M223.671 231.906L286.727 176.79" stroke="#25ABBE" stroke-width="3.05354" stroke-miterlimit="10" stroke-linecap="round" stroke-linejoin="round"/>
<path d="M280.314 173.889L199.853 243.052C240.007 241.678 273.138 212.364 280.314 173.889Z" fill="#25ABBE"/>
<path d="M281.688 155.721L181.99 241.983C186.876 242.899 191.762 243.357 196.8 243.357C197.869 243.357 198.785 243.357 199.853 243.205L280.162 174.042C281.078 169.003 281.688 163.66 281.688 158.316C281.688 157.4 281.688 156.484 281.688 155.721Z" fill="#1A6DAF"/>
<path d="M168.86 238.472C173.44 239.998 178.173 241.22 183.059 242.136L281.536 155.873C281.383 149.766 280.214 142.762 278.84 136.96L168.86 238.472Z" fill="#25ABBE"/>
<path d="M269.932 115.108L146.111 226.41C152.982 231.601 160.615 235.571 168.86 238.472L279.093 137.857C277.261 129.765 274.054 122.132 269.932 115.108Z" fill="#25ABBE"/>
<path d="M196.8 73.4276C155.424 73.4276 120.919 103.047 113.438 142.285L202.296 73.5803C200.464 73.4276 198.632 73.4276 196.8 73.4276Z" fill="#25ABBE"/>
<path d="M257.871 99.3827L126.721 206.257C132.065 214.196 138.783 221.066 146.569 226.715L270.085 115.261C266.573 109.459 262.451 104.116 257.871 99.3827Z" fill="#1A6DAF"/>
<path d="M214.663 75.2598L112.217 154.652L112.064 154.805C112.064 156.026 111.911 157.095 111.911 158.316C111.911 161.37 112.064 164.576 112.369 167.477L237.565 83.8097C230.541 79.8401 222.755 76.9392 214.663 75.2598Z" fill="#1A6DAF"/>
<path d="M246.573 89.4587L117.866 189.615C120.156 195.417 123.21 201.066 126.721 206.104L257.871 99.2301C254.359 95.7185 250.695 92.5123 246.573 89.4587Z" fill="#25ABBE"/>
<path d="M237.565 83.8097L112.369 167.477C113.133 175.263 115.252 182.977 118 190L248 90.5C245 88 240.771 85.4891 237.565 83.8097Z" fill="#25ABBE"/>
<path d="M201.075 73.4276L116.644 129.918C113.591 138.621 111.911 147.781 111.759 157.553L216.953 75.7178C211.762 74.4964 206.571 73.733 201.075 73.4276Z" fill="#25ABBE"/>
<g clip-path="url(#clip0_4_95)">
<g clip-path="url(#clip1_4_95)">
<path d="M199.09 140.113V145.063L203.378 142.588L205.628 146.489L201.34 148.96L205.628 151.435L203.378 155.332L199.09 152.857V157.807H194.59V152.857L190.301 155.332L188.051 151.435L192.34 148.96L188.051 146.485L190.301 142.588L194.59 145.063V140.113H199.09ZM220.465 157.96C220.167 157.96 219.88 158.078 219.67 158.289C219.459 158.5 219.34 158.787 219.34 159.085V161.335C219.34 161.956 219.844 162.46 220.465 162.46H222.715C223.013 162.46 223.3 162.341 223.51 162.13C223.721 161.919 223.84 161.633 223.84 161.335V159.085C223.84 158.787 223.721 158.5 223.51 158.289C223.3 158.078 223.013 157.96 222.715 157.96H220.465ZM219.34 168.085C219.34 167.787 219.459 167.5 219.67 167.289C219.88 167.078 220.167 166.96 220.465 166.96H222.715C223.013 166.96 223.3 167.078 223.51 167.289C223.721 167.5 223.84 167.787 223.84 168.085V170.335C223.84 170.633 223.721 170.919 223.51 171.13C223.3 171.341 223.013 171.46 222.715 171.46H220.465C220.167 171.46 219.88 171.341 219.67 171.13C219.459 170.919 219.34 170.633 219.34 170.335V168.085ZM220.465 175.96C220.167 175.96 219.88 176.078 219.67 176.289C219.459 176.5 219.34 176.787 219.34 177.085V179.335C219.34 179.956 219.844 180.46 220.465 180.46H222.715C223.013 180.46 223.3 180.341 223.51 180.13C223.721 179.919 223.84 179.633 223.84 179.335V177.085C223.84 176.787 223.721 176.5 223.51 176.289C223.3 176.078 223.013 175.96 222.715 175.96H220.465ZM170.965 157.96C170.667 157.96 170.38 158.078 170.17 158.289C169.959 158.5 169.84 158.787 169.84 159.085V161.335C169.84 161.956 170.344 162.46 170.965 162.46H173.215C173.513 162.46 173.8 162.341 174.01 162.13C174.221 161.919 174.34 161.633 174.34 161.335V159.085C174.34 158.787 174.221 158.5 174.01 158.289C173.8 158.078 173.513 157.96 173.215 157.96H170.965ZM170.965 166.96C170.667 166.96 170.38 167.078 170.17 167.289C169.959 167.5 169.84 167.787 169.84 168.085V170.335C169.84 170.956 170.344 171.46 170.965 171.46H173.215C173.513 171.46 173.8 171.341 174.01 171.13C174.221 170.919 174.34 170.633 174.34 170.335V168.085C174.34 167.787 174.221 167.5 174.01 167.289C173.8 167.078 173.513 166.96 173.215 166.96H170.965ZM169.84 177.085C169.84 176.787 169.959 176.5 170.17 176.289C170.38 176.078 170.667 175.96 170.965 175.96H173.215C173.513 175.96 173.8 176.078 174.01 176.289C174.221 176.5 174.34 176.787 174.34 177.085V179.335C174.34 179.633 174.221 179.919 174.01 180.13C173.8 180.341 173.513 180.46 173.215 180.46H170.965C170.667 180.46 170.38 180.341 170.17 180.13C169.959 179.919 169.84 179.633 169.84 179.335V177.085Z" fill="white"/>
<path d="M183.34 121.96C183.34 120.766 183.814 119.622 184.658 118.778C185.502 117.934 186.647 117.46 187.84 117.46H205.84C207.033 117.46 208.178 117.934 209.022 118.778C209.866 119.622 210.34 120.766 210.34 121.96V126.46C211.533 126.46 212.678 126.934 213.522 127.778C214.366 128.622 214.84 129.766 214.84 130.96V148.96H228.34C229.533 148.96 230.678 149.434 231.522 150.278C232.366 151.122 232.84 152.266 232.84 153.46V184.96C232.84 186.153 232.366 187.298 231.522 188.142C230.678 188.986 229.533 189.46 228.34 189.46H165.34C164.147 189.46 163.002 188.986 162.158 188.142C161.314 187.298 160.84 186.153 160.84 184.96V153.46C160.84 152.266 161.314 151.122 162.158 150.278C163.002 149.434 164.147 148.96 165.34 148.96H178.84V130.96C178.84 129.766 179.314 128.622 180.158 127.778C181.002 126.934 182.147 126.46 183.34 126.46V121.96ZM192.34 184.96H201.34V171.46H192.34V184.96ZM205.84 184.96H210.34V130.96H183.34V184.96H187.84V171.46C187.84 170.266 188.314 169.122 189.158 168.278C190.002 167.434 191.147 166.96 192.34 166.96H201.34C202.533 166.96 203.678 167.434 204.522 168.278C205.366 169.122 205.84 170.266 205.84 171.46V184.96ZM205.84 121.96H187.84V126.46H205.84V121.96ZM214.84 153.46V184.96H228.34V153.46H214.84ZM178.84 184.96V153.46H165.34V184.96H178.84Z" fill="white"/>
</g>
</g>
<path d="M77.43 322.784L77.05 323.504C76.3167 323.011 75.55 322.764 74.75 322.764C73.79 322.764 73.0033 323.071 72.39 323.684C71.7767 324.297 71.47 325.081 71.47 326.034C71.47 327.047 71.7767 327.841 72.39 328.414C72.9967 328.981 73.78 329.264 74.74 329.264C75.2467 329.264 75.6767 329.214 76.03 329.114C76.3833 329.014 76.7633 328.834 77.17 328.574L77.44 329.364C76.6867 329.851 75.7433 330.094 74.61 330.094C74.0833 330.094 73.58 330.014 73.1 329.854C72.6267 329.687 72.2 329.441 71.82 329.114C71.4333 328.794 71.13 328.367 70.91 327.834C70.6834 327.301 70.57 326.701 70.57 326.034C70.57 324.847 70.9767 323.877 71.79 323.124C72.5967 322.371 73.5833 321.994 74.75 321.994C75.7967 321.994 76.69 322.257 77.43 322.784Z" fill="black"/>
<path d="M86.85 325.484V322.144H87.75V329.944H86.85V326.244H82.29V329.944H81.39V322.144H82.29V325.484H86.85Z" fill="black"/>
<path d="M92 326.464V322.144H92.9V326.544C92.9 327.464 93.1067 328.157 93.52 328.624C93.9333 329.091 94.5067 329.324 95.24 329.324C95.9733 329.324 96.55 329.091 96.97 328.624C97.3833 328.157 97.59 327.464 97.59 326.544V322.144H98.49V326.464C98.49 327.677 98.2033 328.587 97.63 329.194C97.0567 329.794 96.26 330.094 95.24 330.094C94.2133 330.094 93.4167 329.794 92.85 329.194C92.2833 328.594 92 327.684 92 326.464Z" fill="black"/>
<path d="M109.04 329.944V322.144H109.94V329.944H109.04Z" fill="black"/>
<path d="M114.25 329.944V322.144H116.96C117.713 322.144 118.323 322.311 118.79 322.644C119.263 322.971 119.5 323.461 119.5 324.114C119.5 324.421 119.43 324.717 119.29 325.004C119.15 325.291 118.953 325.514 118.7 325.674V325.724C119.127 325.884 119.46 326.127 119.7 326.454C119.933 326.787 120.05 327.174 120.05 327.614C120.05 328.301 119.803 328.861 119.31 329.294C118.823 329.727 118.167 329.944 117.34 329.944H114.25ZM117.34 326.174H115.14V329.174H117.24C117.827 329.174 118.293 329.047 118.64 328.794C118.993 328.541 119.17 328.164 119.17 327.664C119.17 326.671 118.56 326.174 117.34 326.174ZM117.06 322.884H115.14V325.454H117.21C117.663 325.454 118.01 325.337 118.25 325.104C118.49 324.871 118.61 324.554 118.61 324.154C118.61 323.741 118.473 323.424 118.2 323.204C117.927 322.991 117.547 322.884 117.06 322.884Z" fill="black"/>
<path d="M124.13 329.944V322.144H125.09L130.48 328.874L130.43 326.484V322.144H131.28V329.944H130.29L124.89 323.164L124.98 325.924V329.944H124.13Z" fill="black"/>
<path d="M141.89 329.944V322.144H144.95C145.73 322.144 146.367 322.341 146.86 322.734C147.353 323.121 147.6 323.644 147.6 324.304C147.6 324.757 147.44 325.174 147.12 325.554C146.807 325.927 146.363 326.191 145.79 326.344L148.15 329.944H147.06L144.88 326.504H142.79V329.944H141.89ZM144.77 322.914H142.79V325.724H144.78C145.353 325.724 145.817 325.601 146.17 325.354C146.523 325.107 146.7 324.757 146.7 324.304C146.7 323.377 146.057 322.914 144.77 322.914Z" fill="black"/>
<path d="M153.6 323.654C152.96 324.254 152.64 325.051 152.64 326.044C152.64 327.037 152.96 327.834 153.6 328.434C154.233 329.027 155.007 329.324 155.92 329.324C156.827 329.324 157.6 329.027 158.24 328.434C158.873 327.834 159.19 327.037 159.19 326.044C159.19 325.051 158.873 324.254 158.24 323.654C157.6 323.061 156.827 322.764 155.92 322.764C155.007 322.764 154.233 323.061 153.6 323.654ZM160.09 326.044C160.09 327.237 159.693 328.211 158.9 328.964C158.1 329.717 157.107 330.094 155.92 330.094C154.72 330.094 153.723 329.717 152.93 328.964C152.143 328.217 151.75 327.244 151.75 326.044C151.75 324.851 152.147 323.877 152.94 323.124C153.733 322.371 154.727 321.994 155.92 321.994C157.12 321.994 158.113 322.367 158.9 323.114C159.693 323.867 160.09 324.844 160.09 326.044Z" fill="black"/>
<path d="M170.66 322.784L170.29 323.504C169.557 323.011 168.79 322.764 167.99 322.764C167.03 322.764 166.243 323.071 165.63 323.684C165.01 324.297 164.7 325.081 164.7 326.034C164.7 327.047 165.007 327.841 165.62 328.414C166.233 328.981 167.02 329.264 167.98 329.264C168.48 329.264 168.91 329.214 169.27 329.114C169.623 329.014 170.003 328.834 170.41 328.574L170.67 329.364C169.923 329.851 168.98 330.094 167.84 330.094C167.313 330.094 166.813 330.014 166.34 329.854C165.867 329.687 165.437 329.441 165.05 329.114C164.67 328.794 164.367 328.367 164.14 327.834C163.913 327.301 163.8 326.701 163.8 326.034C163.8 324.847 164.207 323.877 165.02 323.124C165.833 322.371 166.823 321.994 167.99 321.994C169.037 321.994 169.927 322.257 170.66 322.784Z" fill="black"/>
<path d="M180.08 325.484V322.144H180.98V329.944H180.08V326.244H175.53V329.944H174.63V322.144H175.53V325.484H180.08Z" fill="black"/>
<path d="M185.3 329.944V322.144H188.14C189.48 322.144 190.517 322.481 191.25 323.154C191.983 323.827 192.35 324.774 192.35 325.994C192.35 327.247 191.947 328.217 191.14 328.904C190.34 329.597 189.257 329.944 187.89 329.944H185.3ZM188.14 322.914H186.2V329.164H187.89C188.957 329.164 189.813 328.904 190.46 328.384C191.113 327.864 191.44 327.067 191.44 325.994C191.44 323.941 190.34 322.914 188.14 322.914Z" fill="black"/>
<path d="M202.66 329.944V322.144H205.5C206.84 322.144 207.877 322.481 208.61 323.154C209.337 323.827 209.7 324.774 209.7 325.994C209.7 327.247 209.3 328.217 208.5 328.904C207.693 329.597 206.607 329.944 205.24 329.944H202.66ZM205.5 322.914H203.55V329.164H205.24C206.313 329.164 207.173 328.904 207.82 328.384C208.467 327.864 208.79 327.067 208.79 325.994C208.79 323.941 207.693 322.914 205.5 322.914Z" fill="black"/>
<path d="M218.78 329.944H213.72V322.144H218.6V322.914H214.62V325.494H218.2V326.264H214.62V329.164H218.78V329.944Z" fill="black"/>
<path d="M235.7 322.784L235.33 323.504C234.597 323.011 233.83 322.764 233.03 322.764C232.07 322.764 231.283 323.071 230.67 323.684C230.057 324.297 229.75 325.081 229.75 326.034C229.75 327.047 230.053 327.841 230.66 328.414C231.273 328.981 232.06 329.264 233.02 329.264C233.52 329.264 233.95 329.214 234.31 329.114C234.663 329.014 235.043 328.834 235.45 328.574L235.72 329.364C234.967 329.851 234.023 330.094 232.89 330.094C232.363 330.094 231.86 330.014 231.38 329.854C230.907 329.687 230.477 329.441 230.09 329.114C229.71 328.794 229.407 328.367 229.18 327.834C228.96 327.301 228.85 326.701 228.85 326.034C228.85 324.847 229.253 323.877 230.06 323.124C230.873 322.371 231.863 321.994 233.03 321.994C234.077 321.994 234.967 322.257 235.7 322.784Z" fill="black"/>
<path d="M239.19 329.944L242.56 322.144H243.61L246.97 329.944H246.02L244.91 327.314H241.21L240.11 329.944H239.19ZM243.15 323.074H242.98L241.52 326.574H244.6L243.15 323.074Z" fill="black"/>
<path d="M255.77 322.624L255.39 323.334C254.763 322.941 254.073 322.744 253.32 322.744C252.767 322.744 252.353 322.867 252.08 323.114C251.807 323.367 251.67 323.661 251.67 323.994C251.67 324.321 251.777 324.587 251.99 324.794C252.21 325.001 252.56 325.154 253.04 325.254L254.18 325.494C255.553 325.781 256.24 326.547 256.24 327.794C256.24 328.447 255.98 328.994 255.46 329.434C254.947 329.874 254.21 330.094 253.25 330.094C252.703 330.094 252.23 330.047 251.83 329.954C251.437 329.854 251.017 329.691 250.57 329.464L250.88 328.644C251.647 329.084 252.43 329.304 253.23 329.304C253.963 329.304 254.5 329.167 254.84 328.894C255.18 328.614 255.35 328.251 255.35 327.804C255.35 327.364 255.23 327.027 254.99 326.794C254.75 326.561 254.347 326.384 253.78 326.264L252.52 325.994C252.007 325.894 251.597 325.674 251.29 325.334C250.977 325.001 250.82 324.571 250.82 324.044C250.82 323.437 251.04 322.944 251.48 322.564C251.927 322.184 252.54 321.994 253.32 321.994C254.267 321.994 255.083 322.204 255.77 322.624Z" fill="black"/>
<path d="M259.83 329.944L263.2 322.144H264.26L267.61 329.944H266.67L265.55 327.314H261.85L260.76 329.944H259.83ZM263.79 323.074H263.62L262.16 326.574H265.24L263.79 323.074Z" fill="black"/>
<path d="M271.45 329.944V322.144H274.16C274.907 322.144 275.517 322.311 275.99 322.644C276.463 322.971 276.7 323.461 276.7 324.114C276.7 324.421 276.63 324.717 276.49 325.004C276.35 325.291 276.153 325.514 275.9 325.674V325.724C276.327 325.884 276.66 326.127 276.9 326.454C277.133 326.787 277.25 327.174 277.25 327.614C277.25 328.301 277.003 328.861 276.51 329.294C276.023 329.727 275.367 329.944 274.54 329.944H271.45ZM274.54 326.174H272.34V329.174H274.43C275.023 329.174 275.493 329.047 275.84 328.794C276.187 328.541 276.36 328.164 276.36 327.664C276.36 326.671 275.753 326.174 274.54 326.174ZM274.25 322.884H272.34V325.454H274.41C274.863 325.454 275.21 325.337 275.45 325.104C275.69 324.871 275.81 324.554 275.81 324.154C275.81 323.741 275.673 323.424 275.4 323.204C275.12 322.991 274.737 322.884 274.25 322.884Z" fill="black"/>
<path d="M282.23 322.144V329.164H285.99V329.944H281.33V322.144H282.23Z" fill="black"/>
<path d="M289.59 329.944L292.95 322.144H294.01L297.36 329.944H296.42L295.3 327.314H291.6L290.51 329.944H289.59ZM293.54 323.074H293.37L291.91 326.574H294.99L293.54 323.074Z" fill="black"/>
<path d="M301.2 329.944V322.144H302.16L307.55 328.874L307.51 326.484V322.144H308.36V329.944H307.36L301.97 323.164L302.05 325.924V329.944H301.2Z" fill="black"/>
<path d="M319.23 322.784L318.86 323.504C318.12 323.011 317.353 322.764 316.56 322.764C315.6 322.764 314.81 323.071 314.19 323.684C313.577 324.297 313.27 325.081 313.27 326.034C313.27 327.047 313.577 327.841 314.19 328.414C314.803 328.981 315.587 329.264 316.54 329.264C317.047 329.264 317.477 329.214 317.83 329.114C318.19 329.014 318.573 328.834 318.98 328.574L319.24 329.364C318.487 329.851 317.543 330.094 316.41 330.094C315.883 330.094 315.383 330.014 314.91 329.854C314.43 329.687 314 329.441 313.62 329.114C313.233 328.794 312.93 328.367 312.71 327.834C312.483 327.301 312.37 326.701 312.37 326.034C312.37 324.847 312.777 323.877 313.59 323.124C314.403 322.371 315.393 321.994 316.56 321.994C317.607 321.994 318.497 322.257 319.23 322.784Z" fill="black"/>
<path d="M322.72 329.944L326.09 322.144H327.14L330.5 329.944H329.55L328.44 327.314H324.73L323.64 329.944H322.72ZM326.67 323.074H326.51L325.04 326.574H328.12L326.67 323.074Z" fill="black"/>
<path d="M26.46 281.701C24.9267 283.148 24.16 285.065 24.16 287.451C24.16 289.838 24.9267 291.751 26.46 293.191C27.9867 294.638 29.8467 295.361 32.04 295.361C34.24 295.361 36.1033 294.638 37.63 293.191C39.1633 291.751 39.93 289.838 39.93 287.451C39.93 285.065 39.1633 283.148 37.63 281.701C36.1033 280.255 34.24 279.531 32.04 279.531C29.8467 279.531 27.9867 280.255 26.46 281.701ZM42.09 287.451C42.09 290.318 41.1333 292.661 39.22 294.481C37.3067 296.301 34.9133 297.211 32.04 297.211C29.1533 297.211 26.7567 296.305 24.85 294.491C22.95 292.685 22 290.338 22 287.451C22 284.578 22.9567 282.231 24.87 280.411C26.7833 278.598 29.1733 277.691 32.04 277.691C34.9333 277.691 37.3333 278.595 39.24 280.401C41.14 282.208 42.09 284.558 42.09 287.451Z" fill="black"/>
<path d="M49.72 296.831V278.061H52.03L65.02 294.261L64.91 288.511V278.061H66.96V296.831H64.56L51.57 280.521L51.77 287.161V296.831H49.72Z" fill="black"/>
<path d="M91.1 279.591L90.2 281.321C88.4333 280.128 86.5867 279.531 84.66 279.531C82.3467 279.531 80.45 280.275 78.97 281.761C77.49 283.241 76.75 285.128 76.75 287.421C76.75 289.868 77.4867 291.778 78.96 293.151C80.4333 294.525 82.3233 295.211 84.63 295.211C85.8433 295.211 86.88 295.091 87.74 294.851C88.5933 294.611 89.51 294.175 90.49 293.541L91.13 295.451C89.3167 296.625 87.0433 297.211 84.31 297.211C83.0433 297.211 81.8367 297.015 80.69 296.621C79.5433 296.221 78.51 295.631 77.59 294.851C76.6633 294.071 75.93 293.041 75.39 291.761C74.85 290.481 74.58 289.035 74.58 287.421C74.58 284.568 75.5567 282.231 77.51 280.411C79.4633 278.598 81.8467 277.691 84.66 277.691C87.18 277.691 89.3267 278.325 91.1 279.591Z" fill="black"/>
<path d="M102.35 281.701C100.817 283.148 100.05 285.065 100.05 287.451C100.05 289.838 100.817 291.751 102.35 293.191C103.877 294.638 105.74 295.361 107.94 295.361C110.133 295.361 111.993 294.638 113.52 293.191C115.053 291.751 115.82 289.838 115.82 287.451C115.82 285.065 115.053 283.148 113.52 281.701C111.993 280.255 110.133 279.531 107.94 279.531C105.74 279.531 103.877 280.255 102.35 281.701ZM117.99 287.451C117.99 290.318 117.03 292.661 115.11 294.481C113.197 296.301 110.807 297.211 107.94 297.211C105.047 297.211 102.65 296.305 100.75 294.491C98.8433 292.685 97.89 290.338 97.89 287.451C97.89 284.578 98.8467 282.231 100.76 280.411C102.673 278.598 105.067 277.691 107.94 277.691C110.827 277.691 113.223 278.595 115.13 280.401C117.037 282.208 117.99 284.558 117.99 287.451Z" fill="black"/>
<path d="M124.89 289.931V288.081H133.2V289.931H124.89Z" fill="black"/>
<path d="M150.27 288.831V287.041H157.37V294.981C155.33 296.468 152.79 297.211 149.75 297.211C147.997 297.211 146.403 296.845 144.97 296.111C143.537 295.378 142.367 294.261 141.46 292.761C140.56 291.261 140.11 289.491 140.11 287.451C140.11 284.598 141.07 282.258 142.99 280.431C144.917 278.605 147.277 277.691 150.07 277.691C152.743 277.691 155.053 278.325 157 279.591L156.08 281.301C154.367 280.121 152.363 279.531 150.07 279.531C147.723 279.531 145.837 280.275 144.41 281.761C142.983 283.241 142.27 285.138 142.27 287.451C142.27 289.818 143.013 291.721 144.5 293.161C145.98 294.608 147.827 295.331 150.04 295.331C152.04 295.331 153.8 294.888 155.32 294.001V288.831H150.27Z" fill="black"/>
<path d="M171.7 289.551L164.42 278.061H166.85L172.71 287.451H172.88L178.66 278.061H181.05L173.84 289.531V296.831H171.7V289.551Z" fill="black"/>
<path d="M188.25 296.831V278.061H190.56L203.55 294.261L203.44 288.511V278.061H205.49V296.831H203.09L190.09 280.521L190.3 287.161V296.831H188.25Z" fill="black"/>
<path d="M226.02 296.831H213.83V278.061H225.58V279.911H216V286.121H224.63V287.971H216V294.951H226.02V296.831ZM220.5 276.441H218.89L221.31 271.511L223.13 272.601L220.5 276.441Z" fill="black"/>
<path d="M249.58 279.591L248.69 281.321C246.917 280.128 245.067 279.531 243.14 279.531C240.833 279.531 238.937 280.275 237.45 281.761C235.97 283.241 235.23 285.128 235.23 287.421C235.23 289.868 235.967 291.778 237.44 293.151C238.913 294.525 240.803 295.211 243.11 295.211C244.323 295.211 245.36 295.091 246.22 294.851C247.073 294.611 247.993 294.175 248.98 293.541L249.61 295.451C247.803 296.625 245.533 297.211 242.8 297.211C241.527 297.211 240.317 297.015 239.17 296.621C238.023 296.221 236.99 295.631 236.07 294.851C235.143 294.071 234.41 293.041 233.87 291.761C233.33 290.481 233.06 289.035 233.06 287.421C233.06 284.568 234.04 282.231 236 280.411C237.953 278.598 240.333 277.691 243.14 277.691C245.667 277.691 247.813 278.325 249.58 279.591Z" fill="black"/>
<path d="M260.83 281.701C259.297 283.148 258.53 285.065 258.53 287.451C258.53 289.838 259.297 291.751 260.83 293.191C262.363 294.638 264.227 295.361 266.42 295.361C268.613 295.361 270.477 294.638 272.01 293.191C273.537 291.751 274.3 289.838 274.3 287.451C274.3 285.065 273.537 283.148 272.01 281.701C270.477 280.255 268.613 279.531 266.42 279.531C264.227 279.531 262.363 280.255 260.83 281.701ZM276.47 287.451C276.47 290.318 275.51 292.661 273.59 294.481C271.677 296.301 269.287 297.211 266.42 297.211C263.533 297.211 261.137 296.305 259.23 294.491C257.323 292.685 256.37 290.338 256.37 287.451C256.37 284.578 257.327 282.231 259.24 280.411C261.16 278.598 263.553 277.691 266.42 277.691C269.307 277.691 271.703 278.595 273.61 280.401C275.517 282.208 276.47 284.558 276.47 287.451Z" fill="black"/>
<path d="M286.26 278.061V294.951H295.32V296.831H284.09V278.061H286.26Z" fill="black"/>
<path d="M306.83 281.701C305.303 283.148 304.54 285.065 304.54 287.451C304.54 289.838 305.303 291.751 306.83 293.191C308.363 294.638 310.227 295.361 312.42 295.361C314.613 295.361 316.477 294.638 318.01 293.191C319.537 291.751 320.3 289.838 320.3 287.451C320.3 285.065 319.537 283.148 318.01 281.701C316.477 280.255 314.613 279.531 312.42 279.531C310.227 279.531 308.363 280.255 306.83 281.701ZM322.47 287.451C322.47 290.318 321.513 292.661 319.6 294.481C317.68 296.301 315.287 297.211 312.42 297.211C309.533 297.211 307.137 296.305 305.23 294.491C303.323 292.685 302.37 290.338 302.37 287.451C302.37 284.578 303.327 282.231 305.24 280.411C307.16 278.598 309.553 277.691 312.42 277.691C315.307 277.691 317.703 278.595 319.61 280.401C321.517 282.208 322.47 284.558 322.47 287.451Z" fill="black"/>
<path d="M339.54 288.831V287.041H346.64V294.981C344.6 296.468 342.06 297.211 339.02 297.211C337.267 297.211 335.673 296.845 334.24 296.111C332.807 295.378 331.637 294.261 330.73 292.761C329.823 291.261 329.37 289.491 329.37 287.451C329.37 284.598 330.333 282.258 332.26 280.431C334.187 278.605 336.543 277.691 339.33 277.691C342.01 277.691 344.323 278.325 346.27 279.591L345.34 281.301C343.627 280.121 341.623 279.531 339.33 279.531C336.983 279.531 335.097 280.275 333.67 281.761C332.25 283.241 331.54 285.138 331.54 287.451C331.54 289.818 332.28 291.721 333.76 293.161C335.247 294.608 337.097 295.331 339.31 295.331C341.31 295.331 343.07 294.888 344.59 294.001V288.831H339.54Z" fill="black"/>
<path d="M354.84 296.831V278.061H357.01V296.831H354.84Z" fill="black"/>
<path d="M377.54 296.831H365.35V278.061H377.11V279.911H367.52V286.121H376.15V287.971H367.52V294.951H377.54V296.831Z" fill="black"/>
<defs>
<clipPath id="clip0_4_95">
<rect width="72" height="72" fill="white" transform="translate(160.84 117.46)"/>
</clipPath>
<clipPath id="clip1_4_95">
<rect width="72" height="72" fill="white" transform="translate(160.84 117.46)"/>
</clipPath>
</defs>
</svg>
