<?xml version="1.0" encoding="UTF-8" standalone="no" ?>
<!DOCTYPE svg PUBLIC "-//W3C//DTD SVG 1.1//EN" "http://www.w3.org/Graphics/SVG/1.1/DTD/svg11.dtd">
<svg xmlns="http://www.w3.org/2000/svg" xmlns:xlink="http://www.w3.org/1999/xlink" version="1.1" width="500" height="500" viewBox="0 0 500 500" xml:space="preserve">
<desc>Created with Fabric.js 3.6.3</desc>
<defs>
</defs>
<g transform="matrix(1.5267707692954429 0 0 1.5267707692954429 249.25000780268584 206.48206596350246)"  >
<g style=""   >
		<g transform="matrix(1 0 0 1 -1.5 0.8999999999999986)"  >
<circle style="stroke: none; stroke-width: 1; stroke-dasharray: none; stroke-linecap: butt; stroke-dashoffset: 0; stroke-linejoin: miter; stroke-miterlimit: 4; fill: rgb(26,109,175); fill-rule: nonzero; opacity: 1;"  cx="0" cy="0" r="55.6" />
</g>
		<g transform="matrix(1 0 0 1 -12.200000000000003 48.05)"  >
<line style="stroke: rgb(253,205,18); stroke-width: 2; stroke-dasharray: none; stroke-linecap: round; stroke-dashoffset: 0; stroke-linejoin: round; stroke-miterlimit: 10; fill: none; fill-rule: nonzero; opacity: 1;"  x1="-10.700000000000003" y1="9.550000000000004" x2="10.700000000000003" y2="-9.550000000000004" />
</g>
		<g transform="matrix(1 0 0 1 3.899999999999988 -48.650000000000006)"  >
<line style="stroke: rgb(253,205,18); stroke-width: 2; stroke-dasharray: none; stroke-linecap: round; stroke-dashoffset: 0; stroke-linejoin: round; stroke-miterlimit: 10; fill: none; fill-rule: nonzero; opacity: 1;"  x1="-11.2" y1="8.95" x2="11.2" y2="-8.95" />
</g>
		<g transform="matrix(1 0 0 1 46.45 3.949999999999992)"  >
<line style="stroke: rgb(253,205,18); stroke-width: 2; stroke-dasharray: none; stroke-linecap: round; stroke-dashoffset: 0; stroke-linejoin: round; stroke-miterlimit: 10; fill: none; fill-rule: nonzero; opacity: 1;"  x1="-11.25" y1="8.95" x2="11.25" y2="-8.95" />
</g>
		<g transform="matrix(1 0 0 1 45.55 -13.25)"  >
<line style="stroke: rgb(244,94,172); stroke-width: 2; stroke-dasharray: none; stroke-linecap: round; stroke-dashoffset: 0; stroke-linejoin: round; stroke-miterlimit: 10; fill: none; fill-rule: nonzero; opacity: 1;"  x1="-9.950000000000003" y1="8.850000000000001" x2="9.950000000000003" y2="-8.850000000000001" />
</g>
		<g transform="matrix(1 0 0 1 -37.45 43.849999999999994)"  >
<line style="stroke: rgb(26,109,175); stroke-width: 2; stroke-dasharray: none; stroke-linecap: round; stroke-dashoffset: 0; stroke-linejoin: round; stroke-miterlimit: 10; fill: none; fill-rule: nonzero; opacity: 1;"  x1="-9.95" y1="8.850000000000001" x2="9.95" y2="-8.850000000000001" />
</g>
		<g transform="matrix(1 0 0 1 -47.400000000000006 11.800000000000008)"  >
<line style="stroke: rgb(244,94,172); stroke-width: 2; stroke-dasharray: none; stroke-linecap: round; stroke-dashoffset: 0; stroke-linejoin: round; stroke-miterlimit: 10; fill: none; fill-rule: nonzero; opacity: 1;"  x1="-10.3" y1="8.500000000000004" x2="10.3" y2="-8.500000000000004" />
</g>
		<g transform="matrix(1 0 0 1 27.45000000000001 -44.150000000000006)"  >
<line style="stroke: rgb(244,94,172); stroke-width: 2; stroke-dasharray: none; stroke-linecap: round; stroke-dashoffset: 0; stroke-linejoin: round; stroke-miterlimit: 10; fill: none; fill-rule: nonzero; opacity: 1;"  x1="-10.449999999999996" y1="8.25" x2="10.449999999999996" y2="-8.25" />
</g>
		<g transform="matrix(1 0 0 1 -44 -33.300000000000004)"  >
<line style="stroke: rgb(244,94,172); stroke-width: 2; stroke-dasharray: none; stroke-linecap: round; stroke-dashoffset: 0; stroke-linejoin: round; stroke-miterlimit: 10; fill: none; fill-rule: nonzero; opacity: 1;"  x1="-10.2" y1="8.6" x2="10.2" y2="-8.6" />
</g>
		<g transform="matrix(1 0 0 1 -34.7 14.550000000000008)"  >
<line style="stroke: rgb(37,171,190); stroke-width: 2; stroke-dasharray: none; stroke-linecap: round; stroke-dashoffset: 0; stroke-linejoin: round; stroke-miterlimit: 10; fill: none; fill-rule: nonzero; opacity: 1;"  x1="-20.6" y1="18.05" x2="20.6" y2="-18.05" />
</g>
		<g transform="matrix(1 0 0 1 36.74999999999998 31.049999999999997)"  >
<line style="stroke: rgb(37,171,190); stroke-width: 2; stroke-dasharray: none; stroke-linecap: round; stroke-dashoffset: 0; stroke-linejoin: round; stroke-miterlimit: 10; fill: none; fill-rule: nonzero; opacity: 1;"  x1="-20.65" y1="18.050000000000004" x2="20.65" y2="-18.050000000000004" />
</g>
		<g transform="matrix(1 0 0 1 26.85000000000001 33.749999999999986)"  >
<path style="stroke: none; stroke-width: 1; stroke-dasharray: none; stroke-linecap: butt; stroke-dashoffset: 0; stroke-linejoin: miter; stroke-miterlimit: 4; fill: rgb(37,171,190); fill-rule: nonzero; opacity: 1;"  transform=" translate(-85.55000000000001, -92.35)" d="M 111.9 69.7 L 59.2 115 C 85.5 114.1 107.2 94.9 111.9 69.7 z" stroke-linecap="round" />
</g>
		<g transform="matrix(1 0 0 1 21.450000000000003 27.9)"  >
<path style="stroke: none; stroke-width: 1; stroke-dasharray: none; stroke-linecap: butt; stroke-dashoffset: 0; stroke-linejoin: miter; stroke-miterlimit: 4; fill: rgb(26,109,175); fill-rule: nonzero; opacity: 1;"  transform=" translate(-80.15, -86.5)" d="M 112.8 57.8 l -65.3 56.5 c 3.2 0.6 6.4 0.9 9.7 0.9 c 0.7 0 1.3 0 2 -0.1 l 52.6 -45.3 c 0.6 -3.3 1 -6.8 1 -10.3 C 112.8 58.9 112.8 58.3 112.8 57.8 z" stroke-linecap="round" />
</g>
		<g transform="matrix(1 0 0 1 17.10000000000001 21.70000000000001)"  >
<path style="stroke: none; stroke-width: 1; stroke-dasharray: none; stroke-linecap: butt; stroke-dashoffset: 0; stroke-linejoin: miter; stroke-miterlimit: 4; fill: rgb(253,205,18); fill-rule: nonzero; opacity: 1;"  transform=" translate(-75.80000000000001, -80.30000000000001)" d="M 38.9 112 c 3 1 6.1 1.8 9.3 2.4 l 64.5 -56.5 c -0.1 -4 -0.7 -7.9 -1.6 -11.7 L 38.9 112 z" stroke-linecap="round" />
</g>
		<g transform="matrix(1 0 0 1 8.849999999999994 12.999999999999993)"  >
<path style="stroke: none; stroke-width: 1; stroke-dasharray: none; stroke-linecap: butt; stroke-dashoffset: 0; stroke-linejoin: miter; stroke-miterlimit: 4; fill: rgb(244,94,172); fill-rule: nonzero; opacity: 1;"  transform=" translate(-67.55, -71.6)" d="M 105.1 31.2 L 24 104.1 c 4.5 3.4 9.5 6 14.9 7.9 l 72.2 -65.9 C 109.9 40.8 107.8 35.8 105.1 31.2 z" stroke-linecap="round" />
</g>
		<g transform="matrix(1 0 0 1 -27.000000000000004 -32.150000000000006)"  >
<path style="stroke: none; stroke-width: 1; stroke-dasharray: none; stroke-linecap: butt; stroke-dashoffset: 0; stroke-linejoin: miter; stroke-miterlimit: 4; fill: rgb(244,94,172); fill-rule: nonzero; opacity: 1;"  transform=" translate(-31.7, -26.45)" d="M 57.2 3.9 C 30.1 3.9 7.5 23.3 2.6 49 L 60.8 4 C 59.6 3.9 58.4 3.9 57.2 3.9 z" stroke-linecap="round" />
</g>
		<g transform="matrix(1 0 0 1 -0.45000000000000284 4)"  >
<path style="stroke: none; stroke-width: 1; stroke-dasharray: none; stroke-linecap: butt; stroke-dashoffset: 0; stroke-linejoin: miter; stroke-miterlimit: 4; fill: rgb(26,109,175); fill-rule: nonzero; opacity: 1;"  transform=" translate(-58.25, -62.6)" d="M 97.2 20.9 l -85.9 70 c 3.5 5.2 7.9 9.7 13 13.4 l 80.9 -73 C 102.9 27.5 100.2 24 97.2 20.9 z" stroke-linecap="round" />
</g>
		<g transform="matrix(1 0 0 1 -15.949999999999996 -23.3)"  >
<path style="stroke: none; stroke-width: 1; stroke-dasharray: none; stroke-linecap: butt; stroke-dashoffset: 0; stroke-linejoin: miter; stroke-miterlimit: 4; fill: rgb(26,109,175); fill-rule: nonzero; opacity: 1;"  transform=" translate(-42.75000000000001, -35.3)" d="M 68.9 5.1 l -67.1 52 l -0.1 0.1 c 0 0.8 -0.1 1.5 -0.1 2.3 c 0 2 0.1 4.1 0.3 6 l 82 -54.8 C 79.3 8.1 74.2 6.2 68.9 5.1 z" stroke-linecap="round" />
</g>
		<g transform="matrix(1 0 0 1 -7.350000000000001 -6.000000000000007)"  >
<path style="stroke: none; stroke-width: 1; stroke-dasharray: none; stroke-linecap: butt; stroke-dashoffset: 0; stroke-linejoin: miter; stroke-miterlimit: 4; fill: rgb(37,171,190); fill-rule: nonzero; opacity: 1;"  transform=" translate(-51.35, -52.599999999999994)" d="M 89.8 14.4 L 5.5 80 c 1.5 3.8 3.5 7.5 5.8 10.8 l 85.9 -70 C 94.9 18.5 92.5 16.4 89.8 14.4 z" stroke-linecap="round" />
</g>
		<g transform="matrix(1 0 0 1 -12.850000000000001 -13.250000000000007)"  >
<path style="stroke: none; stroke-width: 1; stroke-dasharray: none; stroke-linecap: butt; stroke-dashoffset: 0; stroke-linejoin: miter; stroke-miterlimit: 4; fill: rgb(244,94,172); fill-rule: nonzero; opacity: 1;"  transform=" translate(-45.85, -45.349999999999994)" d="M 83.9 10.7 l -82 54.8 c 0.5 5.1 1.8 9.9 3.6 14.5 l 84.3 -65.6 C 87.9 13.1 86 11.8 83.9 10.7 z" stroke-linecap="round" />
</g>
		<g transform="matrix(1 0 0 1 -22.75 -27.150000000000002)"  >
<path style="stroke: none; stroke-width: 1; stroke-dasharray: none; stroke-linecap: butt; stroke-dashoffset: 0; stroke-linejoin: miter; stroke-miterlimit: 4; fill: rgb(253,205,18); fill-rule: nonzero; opacity: 1;"  transform=" translate(-35.95, -31.45)" d="M 60 3.9 l -55.3 37 c -2 5.7 -3.1 11.7 -3.2 18.1 L 70.4 5.4 C 67 4.6 63.6 4.1 60 3.9 z" stroke-linecap="round" />
</g>
</g>
</g>
<g transform="matrix(1 0 0 1 253.7500077503418 375.71399836041337)" style=""  ><path fill="#000000" opacity="1" d="M-126.16-3.39L-126.16-3.39L-126.54-2.67Q-127.64-3.41-128.84-3.41L-128.84-3.41Q-130.28-3.41-131.20-2.49Q-132.12-1.57-132.12-0.14L-132.12-0.14Q-132.12 1.38-131.20 2.24Q-130.29 3.09-128.85 3.09L-128.85 3.09Q-128.09 3.09-127.56 2.94Q-127.03 2.79-126.42 2.40L-126.42 2.40L-126.15 3.19Q-127.28 3.92-128.98 3.92L-128.98 3.92Q-129.77 3.92-130.49 3.68Q-131.20 3.43-131.77 2.94Q-132.35 2.46-132.68 1.66Q-133.02 0.86-133.02-0.14L-133.02-0.14Q-133.02-1.92-131.80-3.05Q-130.59-4.18-128.84-4.18L-128.84-4.18Q-127.27-4.18-126.16-3.39Z"/><path fill="#000000" opacity="1" d="M-116.74-0.69L-116.74-4.03L-115.84-4.03L-115.84 3.77L-116.74 3.77L-116.74 0.07L-121.30 0.07L-121.30 3.77L-122.20 3.77L-122.20-4.03L-121.30-4.03L-121.30-0.69L-116.74-0.69Z"/><path fill="#000000" opacity="1" d="M-111.59 0.29L-111.59-4.03L-110.69-4.03L-110.69 0.37Q-110.69 1.75-110.07 2.45Q-109.45 3.15-108.35 3.15Q-107.25 3.15-106.62 2.45Q-106.00 1.75-106.00 0.37L-106.00 0.37L-106.00-4.03L-105.10-4.03L-105.10 0.29Q-105.10 2.11-105.96 3.02Q-106.82 3.92-108.35 3.92Q-109.89 3.92-110.74 3.02Q-111.59 2.12-111.59 0.29L-111.59 0.29Z"/><path fill="#000000" opacity="1" d=""/><path fill="#000000" opacity="1" d="M-94.55 3.77L-94.55-4.03L-93.65-4.03L-93.65 3.77L-94.55 3.77Z"/><path fill="#000000" opacity="1" d="M-89.34 3.77L-89.34-4.03L-86.63-4.03Q-85.50-4.03-84.80-3.53Q-84.09-3.04-84.09-2.06L-84.09-2.06Q-84.09-1.60-84.30-1.17Q-84.51-0.74-84.89-0.50L-84.89-0.50L-84.89-0.45Q-84.25-0.21-83.89 0.28Q-83.54 0.78-83.54 1.44L-83.54 1.44Q-83.54 2.47-84.28 3.12Q-85.01 3.77-86.25 3.77L-86.25 3.77L-89.34 3.77ZM-86.25 0.00L-88.45 0.00L-88.45 3.00L-86.35 3.00Q-85.47 3.00-84.95 2.62Q-84.42 2.24-84.42 1.49L-84.42 1.49Q-84.42 0.00-86.25 0.00L-86.25 0.00ZM-86.53-3.29L-88.45-3.29L-88.45-0.72L-86.38-0.72Q-85.70-0.72-85.34-1.07Q-84.98-1.42-84.98-2.02L-84.98-2.02Q-84.98-2.64-85.39-2.97Q-85.80-3.29-86.53-3.29L-86.53-3.29Z"/><path fill="#000000" opacity="1" d="M-79.46 3.77L-79.46-4.03L-78.50-4.03L-73.11 2.70L-73.16 0.31L-73.16-4.03L-72.31-4.03L-72.31 3.77L-73.30 3.77L-78.70-3.01L-78.61-0.25L-78.61 3.77L-79.46 3.77Z"/><path fill="#000000" opacity="1" d=""/><path fill="#000000" opacity="1" d="M-61.70 3.77L-61.70-4.03L-58.64-4.03Q-57.47-4.03-56.73-3.44Q-55.99-2.86-55.99-1.87L-55.99-1.87Q-55.99-1.19-56.47-0.62Q-56.94-0.06-57.80 0.17L-57.80 0.17L-55.44 3.77L-56.53 3.77L-58.71 0.33L-60.80 0.33L-60.80 3.77L-61.70 3.77ZM-58.82-3.26L-60.80-3.26L-60.80-0.45L-58.81-0.45Q-57.95-0.45-57.42-0.82Q-56.89-1.19-56.89-1.87L-56.89-1.87Q-56.89-3.26-58.82-3.26L-58.82-3.26Z"/><path fill="#000000" opacity="1" d="M-49.99-2.52Q-50.95-1.62-50.95-0.13Q-50.95 1.36-49.99 2.26Q-49.04 3.15-47.67 3.15Q-46.31 3.15-45.35 2.26Q-44.40 1.36-44.40-0.13Q-44.40-1.62-45.35-2.52Q-46.31-3.41-47.67-3.41Q-49.04-3.41-49.99-2.52ZM-43.50-0.13L-43.50-0.13Q-43.50 1.66-44.69 2.79Q-45.89 3.92-47.67 3.92L-47.67 3.92Q-49.47 3.92-50.66 2.79Q-51.84 1.67-51.84-0.13L-51.84-0.13Q-51.84-1.92-50.65-3.05Q-49.46-4.18-47.67-4.18L-47.67-4.18Q-45.87-4.18-44.69-3.06Q-43.50-1.93-43.50-0.13Z"/><path fill="#000000" opacity="1" d="M-32.93-3.39L-32.93-3.39L-33.30-2.67Q-34.40-3.41-35.60-3.41L-35.60-3.41Q-37.04-3.41-37.96-2.49Q-38.89-1.57-38.89-0.14L-38.89-0.14Q-38.89 1.38-37.97 2.24Q-37.05 3.09-35.61 3.09L-35.61 3.09Q-34.86 3.09-34.32 2.94Q-33.79 2.79-33.18 2.40L-33.18 2.40L-32.92 3.19Q-34.04 3.92-35.75 3.92L-35.75 3.92Q-36.54 3.92-37.25 3.68Q-37.96 3.43-38.54 2.94Q-39.11 2.46-39.45 1.66Q-39.79 0.86-39.79-0.14L-39.79-0.14Q-39.79-1.92-38.57-3.05Q-37.35-4.18-35.60-4.18L-35.60-4.18Q-34.03-4.18-32.93-3.39Z"/><path fill="#000000" opacity="1" d="M-23.51-0.69L-23.51-4.03L-22.61-4.03L-22.61 3.77L-23.51 3.77L-23.51 0.07L-28.06 0.07L-28.06 3.77L-28.96 3.77L-28.96-4.03L-28.06-4.03L-28.06-0.69L-23.51-0.69Z"/><path fill="#000000" opacity="1" d="M-18.29 3.77L-18.29-4.03L-15.45-4.03Q-13.44-4.03-12.34-3.02Q-11.24-2.01-11.24-0.18L-11.24-0.18Q-11.24 1.70-12.45 2.73Q-13.65 3.77-15.70 3.77L-15.70 3.77L-18.29 3.77ZM-15.45-3.26L-17.39-3.26L-17.39 2.99L-15.70 2.99Q-14.10 2.99-13.13 2.21Q-12.15 1.43-12.15-0.18L-12.15-0.18Q-12.15-3.26-15.45-3.26L-15.45-3.26Z"/><path fill="#000000" opacity="1" d=""/><path fill="#000000" opacity="1" d="M-0.93 3.77L-0.93-4.03L1.91-4.03Q3.92-4.03 5.02-3.02Q6.11-2.01 6.11-0.18L6.11-0.18Q6.11 1.70 4.91 2.73Q3.70 3.77 1.65 3.77L1.65 3.77L-0.93 3.77ZM1.91-3.26L-0.04-3.26L-0.04 2.99L1.65 2.99Q3.26 2.99 4.23 2.21Q5.20 1.43 5.20-0.18L5.20-0.18Q5.20-3.26 1.91-3.26L1.91-3.26Z"/><path fill="#000000" opacity="1" d="M15.19 3.77L10.13 3.77L10.13-4.03L15.01-4.03L15.01-3.26L11.03-3.26L11.03-0.68L14.61-0.68L14.61 0.09L11.03 0.09L11.03 2.99L15.19 2.99L15.19 3.77Z"/><path fill="#000000" opacity="1" d=""/><path fill="#000000" opacity="1" d="M32.11-3.39L32.11-3.39L31.74-2.67Q30.64-3.41 29.44-3.41L29.44-3.41Q28.00-3.41 27.08-2.49Q26.16-1.57 26.16-0.14L26.16-0.14Q26.16 1.38 27.07 2.24Q27.99 3.09 29.43 3.09L29.43 3.09Q30.18 3.09 30.72 2.94Q31.25 2.79 31.86 2.40L31.86 2.40L32.13 3.19Q31.00 3.92 29.30 3.92L29.30 3.92Q28.51 3.92 27.79 3.68Q27.08 3.43 26.50 2.94Q25.93 2.46 25.59 1.66Q25.26 0.86 25.26-0.14L25.26-0.14Q25.26-1.92 26.47-3.05Q27.69-4.18 29.44-4.18L29.44-4.18Q31.01-4.18 32.11-3.39Z"/><path fill="#000000" opacity="1" d="M35.60 3.77L38.97-4.03L40.02-4.03L43.38 3.77L42.43 3.77L41.32 1.14L37.62 1.14L36.52 3.77L35.60 3.77ZM39.56-3.10L39.39-3.10L37.93 0.40L41.01 0.40L39.56-3.10Z"/><path fill="#000000" opacity="1" d="M52.18-3.55L52.18-3.55L51.80-2.84Q50.86-3.43 49.73-3.43L49.73-3.43Q48.90-3.43 48.49-3.06Q48.08-2.68 48.08-2.18L48.08-2.18Q48.08-1.69 48.40-1.38Q48.73-1.07 49.45-0.92L49.45-0.92L50.59-0.68Q52.65-0.25 52.65 1.62L52.65 1.62Q52.65 2.60 51.87 3.26Q51.10 3.92 49.66 3.92L49.66 3.92Q48.84 3.92 48.24 3.78Q47.65 3.63 46.98 3.29L46.98 3.29L47.29 2.47Q48.44 3.13 49.64 3.13L49.64 3.13Q50.74 3.13 51.25 2.72Q51.76 2.30 51.76 1.63L51.76 1.63Q51.76 0.97 51.40 0.62Q51.04 0.27 50.19 0.09L50.19 0.09L48.93-0.18Q48.16-0.33 47.70-0.84Q47.23-1.34 47.23-2.13L47.23-2.13Q47.23-3.04 47.89-3.61Q48.56-4.18 49.73-4.18L49.73-4.18Q51.15-4.18 52.18-3.55Z"/><path fill="#000000" opacity="1" d="M56.24 3.77L59.61-4.03L60.67-4.03L64.02 3.77L63.08 3.77L61.96 1.14L58.26 1.14L57.17 3.77L56.24 3.77ZM60.20-3.10L60.03-3.10L58.57 0.40L61.65 0.40L60.20-3.10Z"/><path fill="#000000" opacity="1" d="M67.86 3.77L67.86-4.03L70.57-4.03Q71.69-4.03 72.40-3.53Q73.11-3.04 73.11-2.06L73.11-2.06Q73.11-1.60 72.90-1.17Q72.69-0.74 72.31-0.50L72.31-0.50L72.31-0.45Q72.95-0.21 73.31 0.28Q73.66 0.78 73.66 1.44L73.66 1.44Q73.66 2.47 72.92 3.12Q72.19 3.77 70.95 3.77L70.95 3.77L67.86 3.77ZM70.95 0.00L68.75 0.00L68.75 3.00L70.84 3.00Q71.73 3.00 72.25 2.62Q72.77 2.24 72.77 1.49L72.77 1.49Q72.77 0.00 70.95 0.00L70.95 0.00ZM70.66-3.29L68.75-3.29L68.75-0.72L70.82-0.72Q71.50-0.72 71.86-1.07Q72.22-1.42 72.22-2.02L72.22-2.02Q72.22-2.64 71.81-2.97Q71.39-3.29 70.66-3.29L70.66-3.29Z"/><path fill="#000000" opacity="1" d="M78.64-4.03L78.64 2.99L82.40 2.99L82.40 3.77L77.74 3.77L77.74-4.03L78.64-4.03Z"/><path fill="#000000" opacity="1" d="M86.00 3.77L89.36-4.03L90.42-4.03L93.77 3.77L92.83 3.77L91.71 1.14L88.01 1.14L86.92 3.77L86.00 3.77ZM89.95-3.10L89.78-3.10L88.32 0.40L91.40 0.40L89.95-3.10Z"/><path fill="#000000" opacity="1" d="M97.61 3.77L97.61-4.03L98.57-4.03L103.96 2.70L103.92 0.31L103.92-4.03L104.77-4.03L104.77 3.77L103.77 3.77L98.38-3.01L98.46-0.25L98.46 3.77L97.61 3.77Z"/><path fill="#000000" opacity="1" d="M115.64-3.39L115.64-3.39L115.27-2.67Q114.16-3.41 112.97-3.41L112.97-3.41Q111.53-3.41 110.60-2.49Q109.68-1.57 109.68-0.14L109.68-0.14Q109.68 1.38 110.60 2.24Q111.52 3.09 112.95 3.09L112.95 3.09Q113.71 3.09 114.24 2.94Q114.78 2.79 115.39 2.40L115.39 2.40L115.65 3.19Q114.52 3.92 112.82 3.92L112.82 3.92Q112.03 3.92 111.32 3.68Q110.60 3.43 110.03 2.94Q109.45 2.46 109.12 1.66Q108.78 0.86 108.78-0.14L108.78-0.14Q108.78-1.92 110.00-3.05Q111.22-4.18 112.97-4.18L112.97-4.18Q114.54-4.18 115.64-3.39Z"/><path fill="#000000" opacity="1" d="M119.13 3.77L122.50-4.03L123.55-4.03L126.91 3.77L125.96 3.77L124.85 1.14L121.14 1.14L120.05 3.77L119.13 3.77ZM123.08-3.10L122.92-3.10L121.45 0.40L124.53 0.40L123.08-3.10Z"/><path fill="#000000" opacity="1" d=""/></g>
<g transform="matrix(1 0 0 1 250 337.301332574432)" style=""  ><path fill="#000000" opacity="1" d="M-173.38-6.06Q-175.68-3.89-175.68-0.31Q-175.68 3.27-173.38 5.43Q-171.09 7.60-167.80 7.60Q-164.50 7.60-162.21 5.43Q-159.91 3.27-159.91-0.31Q-159.91-3.89-162.21-6.06Q-164.50-8.23-167.80-8.23Q-171.09-8.23-173.38-6.06ZM-157.75-0.31L-157.75-0.31Q-157.75 3.99-160.62 6.72Q-163.49 9.45-167.80 9.45L-167.80 9.45Q-172.13 9.45-174.99 6.73Q-177.84 4.02-177.84-0.31L-177.84-0.31Q-177.84-4.62-174.97-7.35Q-172.10-10.07-167.80-10.07L-167.80-10.07Q-163.46-10.07-160.60-7.36Q-157.75-4.65-157.75-0.31Z"/><path fill="#000000" opacity="1" d="M-150.12 9.07L-150.12-9.70L-147.81-9.70L-134.82 6.50L-134.93 0.75L-134.93-9.70L-132.88-9.70L-132.88 9.07L-135.28 9.07L-148.27-7.24L-148.07-0.60L-148.07 9.07L-150.12 9.07Z"/><path fill="#000000" opacity="1" d="M-108.74-8.17L-108.74-8.17L-109.64-6.44Q-112.29-8.23-115.18-8.23L-115.18-8.23Q-118.65-8.23-120.87-6.00Q-123.09-3.78-123.09-0.34L-123.09-0.34Q-123.09 3.33-120.88 5.39Q-118.67 7.45-115.21 7.45L-115.21 7.45Q-113.39 7.45-112.10 7.09Q-110.82 6.73-109.35 5.78L-109.35 5.78L-108.71 7.69Q-111.43 9.45-115.53 9.45L-115.53 9.45Q-117.43 9.45-119.15 8.86Q-120.87 8.26-122.25 7.09Q-123.64 5.92-124.45 4.00Q-125.26 2.08-125.26-0.34L-125.26-0.34Q-125.26-4.62-122.33-7.35Q-119.40-10.07-115.18-10.07L-115.18-10.07Q-111.40-10.07-108.74-8.17Z"/><path fill="#000000" opacity="1" d="M-97.49-6.06Q-99.79-3.89-99.79-0.31Q-99.79 3.27-97.49 5.43Q-95.20 7.60-91.90 7.60Q-88.61 7.60-86.32 5.43Q-84.02 3.27-84.02-0.31Q-84.02-3.89-86.32-6.06Q-88.61-8.23-91.90-8.23Q-95.20-8.23-97.49-6.06ZM-81.85-0.31L-81.85-0.31Q-81.85 3.99-84.73 6.72Q-87.60 9.45-91.90 9.45L-91.90 9.45Q-96.24 9.45-99.09 6.73Q-101.95 4.02-101.95-0.31L-101.95-0.31Q-101.95-4.62-99.08-7.35Q-96.21-10.07-91.90-10.07L-91.90-10.07Q-87.57-10.07-84.71-7.36Q-81.85-4.65-81.85-0.31Z"/><path fill="#000000" opacity="1" d="M-74.95 2.17L-74.95 0.32L-66.64 0.32L-66.64 2.17L-74.95 2.17Z"/><path fill="#000000" opacity="1" d="M-49.57 1.07L-49.57-0.72L-42.47-0.72L-42.47 7.22Q-45.53 9.45-50.09 9.45L-50.09 9.45Q-52.72 9.45-54.87 8.35Q-57.02 7.25-58.38 5.00Q-59.73 2.75-59.73-0.31L-59.73-0.31Q-59.73-4.59-56.85-7.33Q-53.96-10.07-49.77-10.07L-49.77-10.07Q-45.76-10.07-42.84-8.17L-42.84-8.17L-43.76-6.46Q-46.33-8.23-49.77-8.23L-49.77-8.23Q-53.29-8.23-55.43-6.00Q-57.57-3.78-57.57-0.31L-57.57-0.31Q-57.57 3.24-55.34 5.40Q-53.12 7.57-49.80 7.57L-49.80 7.57Q-46.80 7.57-44.52 6.24L-44.52 6.24L-44.52 1.07L-49.57 1.07Z"/><path fill="#000000" opacity="1" d="M-28.14 1.79L-35.42-9.70L-32.99-9.70L-27.13-0.31L-26.96-0.31L-21.18-9.70L-18.79-9.70L-26.00 1.77L-26.00 9.07L-28.14 9.07L-28.14 1.79Z"/><path fill="#000000" opacity="1" d="M-11.59 9.07L-11.59-9.70L-9.28-9.70L3.71 6.50L3.60 0.75L3.60-9.70L5.65-9.70L5.65 9.07L3.25 9.07L-9.75-7.24L-9.54-0.60L-9.54 9.07L-11.59 9.07Z"/><path fill="#000000" opacity="1" d="M26.18 9.07L13.99 9.07L13.99-9.70L25.74-9.70L25.74-7.85L16.16-7.85L16.16-1.64L24.79-1.64L24.79 0.21L16.16 0.21L16.16 7.19L26.18 7.19L26.18 9.07ZM20.66-11.32L19.05-11.32L21.47-16.25L23.29-15.16L20.66-11.32Z"/><path fill="#000000" opacity="1" d="M49.74-8.17L49.74-8.17L48.85-6.44Q46.19-8.23 43.30-8.23L43.30-8.23Q39.84-8.23 37.61-6.00Q35.39-3.78 35.39-0.34L35.39-0.34Q35.39 3.33 37.60 5.39Q39.81 7.45 43.27 7.45L43.27 7.45Q45.09 7.45 46.38 7.09Q47.66 6.73 49.14 5.78L49.14 5.78L49.77 7.69Q47.06 9.45 42.96 9.45L42.96 9.45Q41.05 9.45 39.33 8.86Q37.61 8.26 36.23 7.09Q34.84 5.92 34.03 4.00Q33.22 2.08 33.22-0.34L33.22-0.34Q33.22-4.62 36.16-7.35Q39.09-10.07 43.30-10.07L43.30-10.07Q47.09-10.07 49.74-8.17Z"/><path fill="#000000" opacity="1" d="M60.99-6.06Q58.69-3.89 58.69-0.31Q58.69 3.27 60.99 5.43Q63.29 7.60 66.58 7.60Q69.87 7.60 72.17 5.43Q74.46 3.27 74.46-0.31Q74.46-3.89 72.17-6.06Q69.87-8.23 66.58-8.23Q63.29-8.23 60.99-6.06ZM76.63-0.31L76.63-0.31Q76.63 3.99 73.75 6.72Q70.88 9.45 66.58 9.45L66.58 9.45Q62.25 9.45 59.39 6.73Q56.53 4.02 56.53-0.31L56.53-0.31Q56.53-4.62 59.40-7.35Q62.28-10.07 66.58-10.07L66.58-10.07Q70.91-10.07 73.77-7.36Q76.63-4.65 76.63-0.31Z"/><path fill="#000000" opacity="1" d="M86.42-9.70L86.42 7.19L95.48 7.19L95.48 9.07L84.25 9.07L84.25-9.70L86.42-9.70Z"/><path fill="#000000" opacity="1" d="M106.99-6.06Q104.70-3.89 104.70-0.31Q104.70 3.27 106.99 5.43Q109.29 7.60 112.58 7.60Q115.87 7.60 118.17 5.43Q120.46 3.27 120.46-0.31Q120.46-3.89 118.17-6.06Q115.87-8.23 112.58-8.23Q109.29-8.23 106.99-6.06ZM122.63-0.31L122.63-0.31Q122.63 3.99 119.76 6.72Q116.88 9.45 112.58 9.45L112.58 9.45Q108.25 9.45 105.39 6.73Q102.53 4.02 102.53-0.31L102.53-0.31Q102.53-4.62 105.40-7.35Q108.28-10.07 112.58-10.07L112.58-10.07Q116.91-10.07 119.77-7.36Q122.63-4.65 122.63-0.31Z"/><path fill="#000000" opacity="1" d="M139.70 1.07L139.70-0.72L146.80-0.72L146.80 7.22Q143.74 9.45 139.18 9.45L139.18 9.45Q136.55 9.45 134.40 8.35Q132.25 7.25 130.89 5.00Q129.53 2.75 129.53-0.31L129.53-0.31Q129.53-4.59 132.42-7.33Q135.31-10.07 139.49-10.07L139.49-10.07Q143.51-10.07 146.43-8.17L146.43-8.17L145.50-6.46Q142.93-8.23 139.49-8.23L139.49-8.23Q135.97-8.23 133.83-6.00Q131.70-3.78 131.70-0.31L131.70-0.31Q131.70 3.24 133.92 5.40Q136.15 7.57 139.47 7.57L139.47 7.57Q142.47 7.57 144.75 6.24L144.75 6.24L144.75 1.07L139.70 1.07Z"/><path fill="#000000" opacity="1" d="M155.00 9.07L155.00-9.70L157.17-9.70L157.17 9.07L155.00 9.07Z"/><path fill="#000000" opacity="1" d="M177.70 9.07L165.51 9.07L165.51-9.70L177.27-9.70L177.27-7.85L167.68-7.85L167.68-1.64L176.31-1.64L176.31 0.21L167.68 0.21L167.68 7.19L177.70 7.19L177.70 9.07Z"/></g>
<g transform="matrix(1.1720059573185382 0 0 1.1720059573185382 248.25000780268584 207.48206596350246)"  >
<path style="stroke: none; stroke-width: 0; stroke-dasharray: none; stroke-linecap: butt; stroke-dashoffset: 0; stroke-linejoin: miter; stroke-miterlimit: 4; fill: rgb(255,255,255); fill-rule: nonzero; opacity: 1;"  transform=" translate(-49.99879717603473, -50.00283717249469)" d="M 31.678 46.092 c -0.223 -0.525 -0.435 -1.112 -0.659 -1.733 c -0.894 -2.477 -1.907 -5.285 -4.257 -5.285 c -0.749 0 -1.524 0.297 -2.368 0.908 c -3.454 2.501 -3.843 7.292 -2.743 10.685 c 1.002 3.091 3.082 5.011 5.429 5.011 c 0 0 0.001 0 0.001 0 c 1.383 0 2.758 -0.644 4.092 -1.913 c 0.086 -0.064 0.16 -0.142 0.217 -0.232 c 2.306 -2.69 1.567 -4.429 0.355 -7.283 L 31.678 46.092 z M 30.07 52.534 c -1.028 0.99 -2.033 1.491 -2.988 1.492 h -0.001 c -1.919 0 -3.251 -1.997 -3.857 -3.867 c -0.921 -2.842 -0.644 -6.82 2.14 -8.836 c 0.545 -0.395 1.015 -0.594 1.398 -0.594 c 1.189 0 1.993 2.228 2.702 4.193 c 0.222 0.615 0.451 1.25 0.692 1.818 l 0.067 0.159 C 31.421 49.716 31.786 50.574 30.07 52.534 z M 89.909 41.089 c 0.021 -0.062 0.049 -0.121 0.069 -0.184 c 0.417 -1.312 0.551 -2.692 0.438 -4.055 c -0.001 -0.012 -0.003 -0.024 -0.004 -0.036 c -0.039 -0.454 -0.103 -0.905 -0.197 -1.352 c -0.017 -0.082 -0.04 -0.162 -0.059 -0.243 c -0.078 -0.333 -0.171 -0.662 -0.279 -0.987 c -0.063 -0.193 -0.135 -0.383 -0.209 -0.573 c -0.09 -0.23 -0.188 -0.457 -0.293 -0.681 c -0.112 -0.24 -0.233 -0.474 -0.363 -0.707 c -0.118 -0.211 -0.242 -0.419 -0.374 -0.623 c -0.067 -0.104 -0.119 -0.215 -0.19 -0.316 c -0.045 -0.065 -0.1 -0.118 -0.147 -0.182 c -0.212 -0.293 -0.442 -0.573 -0.684 -0.845 c -0.166 -0.187 -0.337 -0.365 -0.513 -0.54 c -0.108 -0.107 -0.214 -0.216 -0.327 -0.318 c -0.033 -0.03 -0.072 -0.055 -0.105 -0.084 c -3.364 -3.016 -8.23 -3.868 -12.837 -3.484 c -2.029 0.103 -3.975 0.447 -5.789 1.057 c -1.167 0.392 -2.273 0.916 -3.342 1.422 c -0.856 0.405 -1.741 0.824 -2.628 1.159 c -3.746 1.414 -7.8 2.067 -12.058 1.945 c -0.007 0 -0.012 0.003 -0.019 0.003 c -0.007 0 -0.012 -0.003 -0.019 -0.003 c -4.256 0.122 -8.312 -0.531 -12.058 -1.945 c -0.887 -0.335 -1.772 -0.754 -2.628 -1.159 c -1.069 -0.506 -2.175 -1.03 -3.342 -1.422 c -1.814 -0.611 -3.759 -0.955 -5.788 -1.057 c -4.607 -0.384 -9.474 0.467 -12.838 3.484 c -0.033 0.029 -0.072 0.054 -0.105 0.084 c -0.113 0.102 -0.218 0.211 -0.327 0.318 c -0.175 0.174 -0.347 0.352 -0.513 0.54 c -0.242 0.272 -0.472 0.553 -0.684 0.846 c -0.046 0.064 -0.101 0.116 -0.147 0.181 c -0.071 0.101 -0.122 0.212 -0.189 0.315 c -0.132 0.205 -0.257 0.413 -0.376 0.625 c -0.129 0.232 -0.25 0.466 -0.362 0.705 c -0.105 0.224 -0.203 0.451 -0.293 0.681 c -0.074 0.19 -0.146 0.38 -0.209 0.574 c -0.108 0.324 -0.2 0.653 -0.278 0.985 c -0.019 0.082 -0.043 0.163 -0.06 0.246 c -0.094 0.446 -0.158 0.898 -0.197 1.351 c -0.001 0.012 -0.003 0.024 -0.004 0.036 c -0.114 1.363 0.021 2.743 0.438 4.055 c 0.02 0.063 0.048 0.122 0.07 0.185 c 0.016 0.047 0.036 0.092 0.052 0.139 c 0.119 0.331 0.255 0.653 0.406 0.968 c 0.042 0.089 0.069 0.183 0.113 0.27 c 0.031 0.061 0.073 0.116 0.105 0.176 c 0.171 0.319 0.356 0.629 0.553 0.932 c 0.93 1.453 2.104 2.751 3.276 4.002 c 0.25 0.279 0.499 0.559 0.75 0.844 c 1.033 1.174 2.1 2.373 3.294 3.401 c 0.322 0.283 0.654 0.553 1.004 0.805 c 0.27 0.194 0.628 0.208 0.912 0.035 c 0.283 -0.172 0.436 -0.497 0.388 -0.826 c -0.062 -0.427 -0.143 -0.855 -0.232 -1.279 c -0.01 -0.046 -0.021 -0.09 -0.03 -0.135 c -0.081 -0.377 -0.166 -0.752 -0.251 -1.121 c -0.612 -2.645 -1.141 -4.956 0.571 -6.911 c 0.144 -0.164 0.298 -0.327 0.474 -0.486 c 0.262 -0.236 0.345 -0.613 0.207 -0.937 c -0.138 -0.325 -0.466 -0.523 -0.819 -0.501 c -0.426 0.03 -0.872 0.087 -1.302 0.141 c -1.232 0.156 -2.21 0.234 -2.972 0.019 c -0.949 -0.391 -1.522 -1.115 -1.693 -2.163 c -0.127 -0.778 -0.05 -1.58 0.19 -2.336 c 0.016 -0.047 0.033 -0.092 0.05 -0.139 c 0.058 -0.167 0.127 -0.329 0.201 -0.49 c 0.055 -0.118 0.113 -0.234 0.175 -0.347 c 0.056 -0.103 0.116 -0.203 0.179 -0.303 c 0.071 -0.113 0.144 -0.225 0.221 -0.331 c 0.09 -0.123 0.187 -0.24 0.286 -0.354 c 0.059 -0.069 0.117 -0.141 0.178 -0.205 c 0.111 -0.116 0.234 -0.219 0.355 -0.324 c 1.268 -1.052 3.568 -1.791 6.341 -1.724 c 0.042 0.002 0.083 0.003 0.125 0.005 c 0.22 0.007 0.445 0.023 0.67 0.041 c 1.758 0.159 3.532 0.615 5.124 1.285 c 0.046 0.019 0.091 0.039 0.137 0.059 c 0.266 0.115 0.525 0.236 0.779 0.362 c 0.107 0.053 0.214 0.111 0.32 0.167 c 0.802 0.422 1.533 0.897 2.163 1.415 c 3.232 2.758 3.79 6.917 4.373 11.289 c 0.058 0.437 0.117 0.875 0.178 1.314 c 0.084 0.753 0.173 1.51 0.285 2.246 c 0.227 1.493 0.628 2.828 1.165 4.088 c 0.355 0.933 0.785 1.838 1.34 2.692 c 0.512 0.788 1.074 1.555 1.636 2.31 c 0.091 0.123 0.176 0.245 0.268 0.369 c 0.11 0.146 0.221 0.292 0.331 0.438 c 1.887 2.512 3.675 4.919 4.166 7.803 c 0.003 0.019 0.006 0.037 0.009 0.056 c 0.032 0.192 0.056 0.387 0.075 0.584 c 0.014 0.147 0.022 0.295 0.029 0.442 c 0.009 0.183 0.014 0.367 0.013 0.554 c -0.002 0.193 -0.008 0.385 -0.021 0.577 c -0.015 0.179 -0.042 0.372 -0.075 0.582 c -0.094 0.597 -0.202 1.341 0.034 2.036 c 0.003 0.008 0.006 0.016 0.009 0.024 c 0.041 0.116 0.093 0.231 0.156 0.343 c 0.014 0.024 0.029 0.048 0.044 0.072 c 0.064 0.105 0.14 0.206 0.227 0.305 c 0.015 0.016 0.03 0.033 0.045 0.049 c 0.051 0.055 0.094 0.113 0.153 0.166 c 0.038 0.034 0.083 0.05 0.125 0.076 c 0.031 0.024 0.053 0.052 0.087 0.075 c 0.631 0.444 2.729 0.477 2.935 0.479 c 0.001 0 0.001 0 0.002 0 c 0 0 0.001 0 0.001 0 c 0.001 0 0.013 0 0.015 0 c 0.002 0 0.014 0 0.015 0 c 0.001 0 0.001 0 0.001 0 c 0.001 0 0.002 0 0.003 0 c 0.207 -0.002 2.304 -0.035 2.935 -0.479 c 0.034 -0.024 0.056 -0.051 0.087 -0.076 c 0.041 -0.025 0.086 -0.041 0.124 -0.075 c 0.059 -0.053 0.101 -0.11 0.152 -0.165 c 0.016 -0.017 0.032 -0.034 0.048 -0.052 c 0.086 -0.099 0.161 -0.199 0.225 -0.303 c 0.015 -0.025 0.031 -0.049 0.045 -0.074 c 0.063 -0.112 0.114 -0.226 0.155 -0.342 c 0.003 -0.009 0.006 -0.017 0.009 -0.025 c 0.236 -0.695 0.128 -1.439 0.034 -2.036 c -0.033 -0.211 -0.06 -0.404 -0.075 -0.583 c -0.013 -0.192 -0.019 -0.383 -0.021 -0.576 c -0.001 -0.187 0.003 -0.372 0.013 -0.555 c 0.007 -0.148 0.015 -0.295 0.029 -0.442 c 0.02 -0.197 0.044 -0.392 0.075 -0.584 c 0.003 -0.019 0.006 -0.037 0.009 -0.056 c 0.491 -2.885 2.281 -5.293 4.168 -7.806 c 0.11 -0.145 0.22 -0.289 0.329 -0.435 c 0.092 -0.123 0.177 -0.245 0.267 -0.367 c 0.563 -0.755 1.125 -1.523 1.637 -2.311 c 0.555 -0.854 0.985 -1.759 1.34 -2.692 c 0.537 -1.26 0.939 -2.594 1.165 -4.088 c 0.112 -0.737 0.201 -1.495 0.285 -2.248 c 0.061 -0.438 0.12 -0.876 0.178 -1.312 c 0.669 -5.018 1.302 -9.757 5.989 -12.418 c 1.384 -0.785 2.77 -1.324 4.114 -1.679 c 2.212 -0.547 4.489 -0.642 6.412 -0.301 c 1.495 0.289 2.71 0.831 3.515 1.497 c 0.122 0.106 0.245 0.21 0.357 0.326 c 0.061 0.063 0.118 0.136 0.177 0.204 c 0.1 0.115 0.197 0.232 0.287 0.355 c 0.077 0.106 0.149 0.217 0.221 0.33 c 0.063 0.1 0.123 0.2 0.179 0.304 c 0.062 0.113 0.12 0.228 0.175 0.346 c 0.074 0.161 0.143 0.324 0.201 0.491 c 0.017 0.046 0.034 0.092 0.049 0.138 c 0.24 0.756 0.318 1.558 0.19 2.336 c -0.171 1.048 -0.743 1.772 -1.692 2.163 c -0.762 0.215 -1.74 0.137 -2.972 -0.019 c -0.431 -0.055 -0.876 -0.111 -1.302 -0.141 c -0.354 -0.022 -0.681 0.177 -0.819 0.501 c -0.138 0.324 -0.055 0.701 0.207 0.937 c 0.277 0.25 0.51 0.505 0.708 0.767 c 1.431 1.895 0.92 4.111 0.337 6.63 c -0.191 0.827 -0.389 1.681 -0.513 2.535 c -0.048 0.328 0.105 0.653 0.388 0.826 c 0.283 0.172 0.642 0.159 0.912 -0.035 c 0.35 -0.251 0.682 -0.522 1.004 -0.805 c 1.194 -1.029 2.26 -2.227 3.294 -3.401 c 0.251 -0.285 0.5 -0.565 0.75 -0.844 c 1.172 -1.252 2.347 -2.55 3.277 -4.003 c 0.196 -0.302 0.38 -0.611 0.551 -0.928 c 0.032 -0.061 0.075 -0.117 0.106 -0.179 c 0.045 -0.089 0.073 -0.184 0.115 -0.273 c 0.15 -0.312 0.285 -0.633 0.404 -0.961 C 89.872 41.184 89.893 41.137 89.909 41.089 z M 37.34 31.064 c 3.94 1.488 8.199 2.177 12.66 2.052 c 4.462 0.128 8.721 -0.564 12.661 -2.052 c 0.95 -0.358 1.866 -0.792 2.752 -1.211 c 0.176 -0.083 0.345 -0.158 0.519 -0.24 c 0.004 -0.002 0.009 -0.001 0.013 -0.003 c 2.286 -1.099 4.996 -1.811 7.69 -2.075 c 0.491 -0.031 0.985 -0.052 1.488 -0.049 c 4.673 0.014 8.222 1.086 10.548 3.188 c 0.642 0.58 1.187 1.248 1.64 1.966 c 0.055 0.087 0.107 0.176 0.159 0.264 c 0.169 0.289 0.324 0.585 0.462 0.888 c 0.047 0.104 0.092 0.208 0.135 0.313 c 0.116 0.28 0.216 0.566 0.304 0.854 c 0.045 0.149 0.09 0.298 0.127 0.449 c 0.061 0.237 0.107 0.476 0.149 0.716 c 0.036 0.208 0.071 0.416 0.092 0.625 c 0.019 0.179 0.026 0.359 0.035 0.539 c 0.012 0.26 0.022 0.521 0.012 0.78 c -0.005 0.134 -0.021 0.267 -0.032 0.4 c -0.023 0.288 -0.05 0.576 -0.101 0.86 c -0.024 0.134 -0.063 0.265 -0.093 0.397 c -0.063 0.278 -0.125 0.556 -0.215 0.826 c -0.014 0.043 -0.032 0.084 -0.048 0.126 c -0.096 0.274 -0.213 0.54 -0.337 0.804 c -0.065 0.135 -0.127 0.27 -0.198 0.402 c -0.155 0.292 -0.33 0.577 -0.513 0.859 c -0.775 1.18 -1.759 2.269 -2.725 3.335 l -0.132 0.146 c -0.07 0.077 -0.139 0.158 -0.209 0.235 c -0.051 0.055 -0.103 0.111 -0.154 0.166 l -0.46 0.492 c -0.309 0.332 -0.614 0.671 -0.92 1.012 c -0.482 0.536 -0.972 1.082 -1.482 1.598 c 0.005 -0.019 0.009 -0.039 0.013 -0.058 c 0.197 -0.85 0.398 -1.734 0.517 -2.625 c 0.004 -0.028 0.01 -0.056 0.013 -0.084 c 0.029 -0.225 0.044 -0.451 0.06 -0.677 c 0.006 -0.084 0.018 -0.168 0.022 -0.253 c 0.009 -0.199 0.002 -0.397 -0.002 -0.595 c -0.002 -0.111 0.004 -0.222 -0.003 -0.332 c -0.011 -0.179 -0.041 -0.357 -0.065 -0.536 c -0.017 -0.129 -0.026 -0.258 -0.05 -0.386 c -0.032 -0.163 -0.085 -0.324 -0.13 -0.486 c -0.039 -0.141 -0.069 -0.283 -0.119 -0.423 c -0.054 -0.15 -0.132 -0.298 -0.2 -0.446 c -0.061 -0.135 -0.108 -0.271 -0.181 -0.404 c 0.84 0.128 1.722 0.162 2.698 -0.167 c 1.069 -0.262 2.04 -0.901 2.659 -2.291 c 0.628 -1.408 0.546 -2.965 0.074 -4.365 c -0.001 -0.004 -0.003 -0.007 -0.004 -0.011 c -0.102 -0.3 -0.22 -0.59 -0.356 -0.872 c -0.033 -0.069 -0.066 -0.137 -0.101 -0.205 c -0.124 -0.239 -0.259 -0.467 -0.404 -0.687 c -0.045 -0.068 -0.087 -0.136 -0.134 -0.203 c -0.173 -0.245 -0.357 -0.471 -0.55 -0.683 c -0.03 -0.033 -0.057 -0.068 -0.088 -0.101 c -0.035 -0.036 -0.065 -0.08 -0.1 -0.115 c -0.144 -0.145 -0.305 -0.267 -0.459 -0.397 c -0.085 -0.072 -0.164 -0.151 -0.253 -0.219 c -1.471 -1.133 -3.328 -1.68 -5.297 -1.817 c -3.187 -0.268 -6.668 0.526 -9.474 1.942 c -0.006 0.003 -0.013 0.006 -0.019 0.009 c -0.029 0.015 -0.057 0.03 -0.085 0.045 c -0.257 0.127 -0.507 0.257 -0.741 0.389 c -0.717 0.407 -1.346 0.857 -1.909 1.339 c -0.31 0.258 -0.605 0.523 -0.87 0.798 c -3.173 3.29 -3.653 7.701 -4.116 11.966 c -0.031 0.288 -0.063 0.563 -0.095 0.844 c -0.285 2.032 -0.643 4.062 -1.338 5.916 c -0.688 1.612 -1.635 3.102 -2.771 4.648 c -0.179 0.24 -0.357 0.484 -0.535 0.72 c -0.021 0.027 -0.041 0.055 -0.062 0.082 c -0.097 0.128 -0.193 0.256 -0.29 0.384 c -1.465 1.928 -2.98 3.921 -3.771 6.367 c -0.188 0.582 -0.316 1.169 -0.412 1.758 c -0.01 0.06 -0.021 0.121 -0.03 0.182 c -0.029 0.196 -0.055 0.392 -0.073 0.588 c -0.02 0.201 -0.031 0.406 -0.04 0.611 c -0.007 0.161 -0.013 0.322 -0.012 0.482 c 0 0.223 0.002 0.446 0.016 0.675 c 0.002 0.031 0.009 0.06 0.011 0.091 c 0.005 0.065 0.001 0.13 0.007 0.195 c 0.018 0.209 0.05 0.423 0.082 0.638 c 0.064 0.425 0.094 0.714 0.076 0.926 c -0.001 0.012 -0.005 0.022 -0.007 0.033 c -0.011 0.088 -0.029 0.163 -0.06 0.228 c -0.01 0.021 -0.027 0.036 -0.039 0.055 c -0.035 0.053 -0.071 0.105 -0.126 0.149 c -0.333 0.11 -1.529 0.209 -1.996 0.209 c -0.018 0 -0.033 0 -0.052 0 l -0.001 0 c 0 0 -0.001 0 -0.001 0 c -0.43 0.012 -1.693 -0.096 -2.036 -0.209 c -0.055 -0.044 -0.091 -0.095 -0.126 -0.149 c -0.012 -0.019 -0.029 -0.034 -0.039 -0.055 c -0.031 -0.065 -0.05 -0.141 -0.061 -0.229 c -0.002 -0.011 -0.005 -0.02 -0.006 -0.032 c -0.019 -0.212 0.012 -0.501 0.076 -0.926 c 0.032 -0.215 0.064 -0.429 0.082 -0.638 c 0.006 -0.065 0.003 -0.13 0.007 -0.195 c 0.003 -0.031 0.01 -0.06 0.011 -0.091 c 0.014 -0.227 0.016 -0.45 0.016 -0.671 c 0 -0.163 -0.006 -0.325 -0.012 -0.488 c -0.009 -0.205 -0.02 -0.41 -0.04 -0.61 c -0.019 -0.196 -0.045 -0.392 -0.073 -0.588 c -0.009 -0.061 -0.02 -0.122 -0.03 -0.182 c -0.096 -0.589 -0.224 -1.176 -0.412 -1.758 c -0.79 -2.446 -2.305 -4.439 -3.771 -6.367 c -0.096 -0.126 -0.191 -0.253 -0.287 -0.379 c -0.022 -0.029 -0.043 -0.058 -0.065 -0.086 c -0.179 -0.238 -0.358 -0.483 -0.538 -0.724 c -1.135 -1.544 -2.081 -3.034 -2.768 -4.644 c -0.696 -1.854 -1.053 -3.885 -1.338 -5.917 c -0.031 -0.281 -0.063 -0.556 -0.095 -0.844 c -0.463 -4.265 -0.943 -8.676 -4.116 -11.966 c -0.266 -0.275 -0.561 -0.54 -0.871 -0.798 c -0.563 -0.482 -1.192 -0.932 -1.909 -1.339 c -0.221 -0.126 -0.455 -0.244 -0.69 -0.361 c -0.055 -0.029 -0.109 -0.058 -0.165 -0.086 c -0.05 -0.024 -0.103 -0.047 -0.153 -0.072 c -2.856 -1.404 -6.375 -2.162 -9.573 -1.832 c -1.386 0.121 -2.84 0.467 -4.145 1.206 c -0.015 0.008 -0.032 0.014 -0.047 0.022 c -0.045 0.025 -0.084 0.059 -0.128 0.084 c -0.223 0.134 -0.444 0.272 -0.656 0.432 c -0.147 0.11 -0.281 0.233 -0.418 0.355 c -0.116 0.102 -0.242 0.188 -0.353 0.3 c -0.035 0.035 -0.066 0.079 -0.1 0.115 c -0.031 0.032 -0.058 0.068 -0.088 0.101 c -0.193 0.212 -0.377 0.438 -0.55 0.682 c -0.047 0.067 -0.09 0.136 -0.135 0.204 c -0.145 0.22 -0.28 0.447 -0.404 0.686 c -0.035 0.068 -0.068 0.136 -0.101 0.205 C 13.751 35 13.633 35.29 13.531 35.59 c -0.001 0.004 -0.003 0.007 -0.004 0.011 c -0.472 1.4 -0.554 2.957 0.074 4.365 c 0.619 1.387 1.587 2.026 2.654 2.289 c 0.978 0.33 1.861 0.297 2.703 0.169 c -0.073 0.132 -0.119 0.267 -0.18 0.401 c -0.068 0.15 -0.147 0.298 -0.201 0.45 c -0.05 0.139 -0.079 0.28 -0.118 0.42 c -0.045 0.163 -0.099 0.324 -0.131 0.488 c -0.025 0.127 -0.033 0.255 -0.05 0.383 c -0.024 0.179 -0.055 0.358 -0.065 0.539 c -0.006 0.107 -0.001 0.214 -0.003 0.322 c -0.004 0.202 -0.011 0.404 -0.002 0.606 c 0.004 0.08 0.015 0.159 0.02 0.239 c 0.016 0.23 0.032 0.46 0.061 0.69 c 0.004 0.028 0.009 0.056 0.013 0.084 c 0.119 0.891 0.32 1.775 0.517 2.625 c 0.005 0.02 0.009 0.039 0.014 0.058 c -0.51 -0.517 -1 -1.062 -1.482 -1.598 c -0.306 -0.341 -0.612 -0.68 -0.92 -1.012 l -0.46 -0.492 c -0.051 -0.054 -0.102 -0.11 -0.153 -0.164 c -0.07 -0.078 -0.14 -0.159 -0.21 -0.237 l -0.132 -0.146 c -0.966 -1.066 -1.95 -2.155 -2.725 -3.334 c -0.183 -0.283 -0.359 -0.568 -0.515 -0.861 c -0.071 -0.131 -0.133 -0.265 -0.197 -0.399 c -0.125 -0.265 -0.242 -0.532 -0.339 -0.808 c -0.015 -0.041 -0.032 -0.082 -0.047 -0.123 c -0.09 -0.271 -0.153 -0.55 -0.216 -0.829 c -0.03 -0.132 -0.068 -0.262 -0.093 -0.395 c -0.051 -0.284 -0.078 -0.573 -0.101 -0.861 c -0.011 -0.133 -0.027 -0.266 -0.032 -0.399 c -0.01 -0.26 0 -0.521 0.012 -0.781 c 0.009 -0.18 0.016 -0.359 0.035 -0.538 c 0.022 -0.209 0.057 -0.417 0.092 -0.625 c 0.042 -0.24 0.088 -0.479 0.149 -0.716 c 0.038 -0.151 0.082 -0.3 0.128 -0.449 c 0.089 -0.289 0.189 -0.574 0.304 -0.854 c 0.043 -0.105 0.088 -0.209 0.135 -0.313 c 0.138 -0.303 0.293 -0.6 0.462 -0.888 c 0.052 -0.089 0.104 -0.177 0.159 -0.264 c 0.168 -0.267 0.355 -0.522 0.55 -0.772 c 0.096 -0.123 0.192 -0.243 0.292 -0.36 c 0.235 -0.272 0.48 -0.536 0.747 -0.781 c 0.034 -0.032 0.069 -0.064 0.104 -0.095 c 2.327 -2.073 5.856 -3.133 10.496 -3.146 c 0.022 0 0.043 0 0.065 0 c 0.5 0 0.992 0.023 1.481 0.056 c 2.835 0.293 5.549 1.067 7.632 2.068 c 0.004 0.002 0.009 0.001 0.013 0.003 c 0.173 0.081 0.343 0.156 0.519 0.24 C 35.474 30.272 36.39 30.705 37.34 31.064 z M 75.605 39.983 c -0.844 -0.611 -1.619 -0.908 -2.368 -0.908 c -2.35 0 -3.363 2.808 -4.257 5.285 c -0.224 0.621 -0.436 1.207 -0.659 1.733 l -0.067 0.158 c -1.213 2.854 -1.951 4.593 0.355 7.283 c 0.058 0.09 0.132 0.169 0.217 0.232 c 1.334 1.27 2.71 1.913 4.092 1.913 c 2.348 0 4.429 -1.921 5.431 -5.012 C 79.448 47.273 79.058 42.483 75.605 39.983 z M 76.776 50.156 c -0.606 1.871 -1.938 3.869 -3.858 3.869 c -0.942 0 -1.933 -0.489 -2.947 -1.453 c -0.023 -0.027 -0.047 -0.053 -0.074 -0.077 c -1.678 -1.932 -1.311 -2.798 -0.121 -5.598 l 0.067 -0.158 c 0.241 -0.568 0.47 -1.203 0.692 -1.818 c 0.709 -1.966 1.513 -4.193 2.702 -4.193 c 0.383 0 0.854 0.2 1.398 0.594 C 77.42 43.338 77.697 47.315 76.776 50.156 z M 56.172 50.427 c 0 -0.82 0.665 -1.485 1.485 -1.485 s 1.485 0.665 1.485 1.485 c 0 0.82 -0.665 1.485 -1.485 1.485 S 56.172 51.248 56.172 50.427 z M 54.849 54.293 c 0 -0.492 0.398 -0.89 0.89 -0.89 s 0.89 0.398 0.89 0.89 s -0.398 0.89 -0.89 0.89 S 54.849 54.784 54.849 54.293 z" stroke-linecap="round" />
</g>
</svg>